<svg width="32" height="32" viewBox="0 0 32 32" fill="none" xmlns="http://www.w3.org/2000/svg">
  <!-- Main triangular ruler body -->
  <path d="M16 3 L29 25 L3 25 Z" fill="url(#gradient)" stroke="#1e40af" stroke-width="0.8"/>
  
  <!-- Ruler edge markings - bottom edge -->
  <line x1="5" y1="25" x2="5" y2="23" stroke="white" stroke-width="0.5" opacity="0.8"/>
  <line x1="7" y1="25" x2="7" y2="23.5" stroke="white" stroke-width="0.4" opacity="0.6"/>
  <line x1="9" y1="25" x2="9" y2="23" stroke="white" stroke-width="0.5" opacity="0.8"/>
  <line x1="11" y1="25" x2="11" y2="23.5" stroke="white" stroke-width="0.4" opacity="0.6"/>
  <line x1="13" y1="25" x2="13" y2="22.5" stroke="white" stroke-width="0.6" opacity="0.9"/>
  <line x1="15" y1="25" x2="15" y2="23.5" stroke="white" stroke-width="0.4" opacity="0.6"/>
  <line x1="17" y1="25" x2="17" y2="23.5" stroke="white" stroke-width="0.4" opacity="0.6"/>
  <line x1="19" y1="25" x2="19" y2="22.5" stroke="white" stroke-width="0.6" opacity="0.9"/>
  <line x1="21" y1="25" x2="21" y2="23.5" stroke="white" stroke-width="0.4" opacity="0.6"/>
  <line x1="23" y1="25" x2="23" y2="23" stroke="white" stroke-width="0.5" opacity="0.8"/>
  <line x1="25" y1="25" x2="25" y2="23.5" stroke="white" stroke-width="0.4" opacity="0.6"/>
  <line x1="27" y1="25" x2="27" y2="23" stroke="white" stroke-width="0.5" opacity="0.8"/>
  
  <!-- Left edge markings -->
  <g transform="rotate(-60 16 16)">
    <line x1="10" y1="16" x2="11" y2="16" stroke="white" stroke-width="0.4" opacity="0.7"/>
    <line x1="12" y1="16" x2="13.5" y2="16" stroke="white" stroke-width="0.5" opacity="0.8"/>
    <line x1="14" y1="16" x2="15" y2="16" stroke="white" stroke-width="0.4" opacity="0.7"/>
    <line x1="16" y1="16" x2="17.5" y2="16" stroke="white" stroke-width="0.5" opacity="0.8"/>
    <line x1="18" y1="16" x2="19" y2="16" stroke="white" stroke-width="0.4" opacity="0.7"/>
    <line x1="20" y1="16" x2="21.5" y2="16" stroke="white" stroke-width="0.5" opacity="0.8"/>
  </g>
  
  <!-- Right edge markings -->
  <g transform="rotate(60 16 16)">
    <line x1="10" y1="16" x2="11" y2="16" stroke="white" stroke-width="0.4" opacity="0.7"/>
    <line x1="12" y1="16" x2="13.5" y2="16" stroke="white" stroke-width="0.5" opacity="0.8"/>
    <line x1="14" y1="16" x2="15" y2="16" stroke="white" stroke-width="0.4" opacity="0.7"/>
    <line x1="16" y1="16" x2="17.5" y2="16" stroke="white" stroke-width="0.5" opacity="0.8"/>
    <line x1="18" y1="16" x2="19" y2="16" stroke="white" stroke-width="0.4" opacity="0.7"/>
    <line x1="20" y1="16" x2="21.5" y2="16" stroke="white" stroke-width="0.5" opacity="0.8"/>
  </g>
  
  <!-- Central hole -->
  <circle cx="16" cy="16" r="1.5" fill="none" stroke="white" stroke-width="0.5" opacity="0.6"/>
  <circle cx="16" cy="16" r="0.8" fill="rgba(255,255,255,0.1)"/>
  
  <!-- Brand marking -->
  <text x="16" y="14" fill="white" font-size="2" opacity="0.7" text-anchor="middle" font-weight="bold">VS</text>
  
  <!-- Viewport indicators -->
  <circle cx="10" cy="21" r="0.5" fill="#60a5fa" opacity="0.9"/>
  <circle cx="16" cy="10" r="0.5" fill="#34d399" opacity="0.9"/>
  <circle cx="22" cy="21" r="0.5" fill="#a78bfa" opacity="0.9"/>
  
  <!-- Gradient definition -->
  <defs>
    <linearGradient id="gradient" x1="0%" y1="0%" x2="100%" y2="100%">
      <stop offset="0%" stop-color="#3b82f6" />
      <stop offset="50%" stop-color="#1d4ed8" />
      <stop offset="100%" stop-color="#1e40af" />
    </linearGradient>
  </defs>
</svg>